<svg width="18" height="18" viewBox="0 0 18 18" fill="none" xmlns="http://www.w3.org/2000/svg">
<path fill-rule="evenodd" clip-rule="evenodd" d="M2.0498 7.89999C2.0498 4.66912 4.66894 2.04999 7.8998 2.04999C11.1307 2.04999 13.7498 4.66912 13.7498 7.89999C13.7498 11.1309 11.1307 13.75 7.8998 13.75C4.66894 13.75 2.0498 11.1309 2.0498 7.89999ZM7.8998 0.549988C3.84051 0.549988 0.549805 3.84069 0.549805 7.89999C0.549805 11.9593 3.84051 15.25 7.8998 15.25C9.65932 15.25 11.2744 14.6317 12.5397 13.6006L16.444 17.5048C16.7369 17.7977 17.2117 17.7977 17.5046 17.5048C17.7975 17.2119 17.7975 16.7371 17.5046 16.4442L13.6004 12.5399C14.6315 11.2746 15.2498 9.6595 15.2498 7.89999C15.2498 3.84069 11.9591 0.549988 7.8998 0.549988Z" fill="#818386"/>
</svg>
